<?xml version="1.0" ?><svg enable-background="new 0 0 64 64" height="64px" id="Layer_1" version="1.1" viewBox="0 0 64 64" width="64px" xml:space="preserve" xmlns="http://www.w3.org/2000/svg" xmlns:xlink="http://www.w3.org/1999/xlink"><circle cx="32" cy="32" fill="#C75C5C" r="32"/><g opacity="0.2"><path d="M52.236,22.024L27.931,17.7c-0.959-0.171-1.874,0.468-2.045,1.427l-4.942,27.778   c-0.171,0.959,0.469,1.874,1.427,2.045l24.306,4.324c0.959,0.17,1.874-0.469,2.045-1.427l4.942-27.778   C53.834,23.111,53.195,22.195,52.236,22.024z M28.335,20.459l22.57,4.015l-3.861,21.701L24.475,42.16L28.335,20.459z" fill="#231F20"/></g><g><path d="M52.545,20.288L28.24,15.964c-0.959-0.17-1.874,0.468-2.045,1.427l-4.942,27.778   c-0.171,0.959,0.468,1.874,1.427,2.045l24.306,4.324c0.959,0.171,1.874-0.468,2.045-1.427l4.942-27.778   C54.143,21.374,53.504,20.459,52.545,20.288z M28.644,18.723l22.569,4.015l-3.861,21.701l-22.569-4.015L28.644,18.723z" fill="#E0E0D1"/></g><rect fill="#4F5D73" height="22.924" transform="matrix(0.1751 -0.9845 0.9845 0.1751 0.2503 63.4611)" width="22.042" x="26.978" y="20.119"/><g opacity="0.2"><path d="M37.637,14.967l-24.216,4.8c-0.955,0.189-1.576,1.117-1.387,2.073l5.486,27.675   c0.189,0.955,1.117,1.576,2.073,1.387l24.216-4.8c0.955-0.189,1.576-1.117,1.387-2.073l-5.486-27.675   C39.52,15.399,38.592,14.778,37.637,14.967z M14.8,22.191l22.486-4.458l4.286,21.622l-22.486,4.458L14.8,22.191z" fill="#231F20"/></g><g><path d="M36.064,13.034l-24.216,4.8c-0.955,0.189-1.576,1.117-1.387,2.073l5.486,27.675   c0.189,0.955,1.117,1.576,2.073,1.387l24.216-4.8c0.955-0.189,1.576-1.117,1.387-2.073l-5.486-27.675   C37.947,13.465,37.02,12.845,36.064,13.034z M13.227,20.258L35.714,15.8L40,37.422l-22.486,4.458L13.227,20.258z" fill="#FFFFFF"/></g><rect fill="#77B3D4" height="22.042" transform="matrix(0.9809 -0.1945 0.1945 0.9809 -5.0999 5.7256)" width="22.924" x="15.152" y="17.818"/></svg>